<svg id="Layer_1" data-name="Layer 1" xmlns="http://www.w3.org/2000/svg" viewBox="0 0 1441.18 1964.94"><title>SVG</title><path d="M2577.22,866.54c-.56-82.26-18.3-159.41-49.07-233.8a543.64,543.64,0,0,0-34.44-69.87c-2.22-3.75-2.11-5.67,2.5-7.25,32.76-11.23,65.44-22.67,98.14-34.07,1.42-.49,2.9-1.37,4.07.19.8,1.07.14,2.23-.52,3.23-13.15,19.78-13.1,41.72-10.73,64.13a65.7,65.7,0,0,0,7.89,24.4C2630.4,680,2652.93,750.8,2665.11,825a655.1,655.1,0,0,1,6.67,162.91c-10.79,125.19-52.19,238.86-129.15,338.86-64.08,83.25-142.55,149.75-234.11,201.19-12.91,7.25-23.28,8.5-37.06,1.46-30.3-15.46-62.68-26.1-95.45-35.3-4.08-1.15-5.88-2.87-6.43-7.3q-10.17-82.32-20.76-164.59-11.31-89-22.64-178-14.19-111.81-28.34-223.63-12.63-99.69-25.29-199.37c-1.08-8.55-1.09-8.58,6.93-11,13.88-4.19,27.81-8.23,41.64-12.58,4.38-1.39,6.22-.57,7.08,4.23q16.71,93.42,33.73,186.8,20.28,111.56,40.68,223.1,19,103.65,38.46,207.26c3.61,19.31,7.64,38.54,11.3,57.85.81,4.23,2,4.9,6,2.86,44.87-23,86.54-50.61,123.29-85.29,32.51-30.68,63.59-62.81,90.59-98.45,27.55-36.35,47.05-77.32,63.43-119.74C2562,1008.34,2576.9,938.14,2577.22,866.54Z" transform="translate(-1232.93 -19.08)"/><path d="M1746,1382.27c2.08-9.63,4.2-18.65,6-27.74,34-173.13,65.06-346.78,96.79-520.31,2.43-13.28,4.9-26.55,7.17-39.85.51-3,1.74-4.55,4.68-5.54,17.67-6,35.26-12.17,52.89-18.26,6-2.09,6.92-1.36,6.16,4.78Q1906.21,885,1892.75,994.58q-20.74,168.66-41.53,337.32c-6.17,50.12-12.41,100.23-18.34,150.37-.67,5.59-2.52,8.23-8.08,9.94-28.82,8.87-57.25,18.85-84.62,31.62a139.43,139.43,0,0,0-19.78,10.66c-3.2,2.17-5.75,2.18-9.15.45A769.51,769.51,0,0,1,1577,1447.73c-50.09-40.34-94.62-86-132.27-138.25-53.34-74-89.13-155.51-105.43-245.42a669.94,669.94,0,0,1-8.93-73.91c-.26-3.82.51-6.13,4.45-7.63,29-11,58.36-20.86,87.55-31.28,4.14-1.48,5.06.48,5.75,4.13,16.47,88.36,50,169.66,101.51,243.37,50,71.48,114.81,126.42,190.19,169.44C1728.2,1373,1736.81,1377.33,1746,1382.27Z" transform="translate(-1232.93 -19.08)"/><path d="M1938.38,259.37c-1.19,10-2.5,18.54-4.83,26.92-1,3.54-3.14,4.95-6.72,5.47a574.54,574.54,0,0,0-179,57.19c-41.78,21.24-80,47.63-115.54,78.23-49.68,42.74-92.37,91.24-125.76,147.71-38.91,65.79-63.63,136.53-73.3,212.43a278.23,278.23,0,0,0-2.59,36.37c0,4.06-1.19,6.18-5.32,7.6q-93,32-186,64.31a3.45,3.45,0,0,1-.94.31c-1.7,0-3.71,2.33-5,.22-1.54-2.59,1.18-3.81,2.79-5,23-17.67,45.08-36.46,65.4-57.19,15-15.24,29-31.28,40.29-49.51a91.09,91.09,0,0,0,10.79-26.14c10.16-40,25.27-78.29,43.61-115.25a875.57,875.57,0,0,1,127.48-189.85c10.89-12.38,24.13-22.46,36.83-33,47.69-39.46,99.16-73.13,154.88-100.15,58.79-28.51,120.14-49.17,184.73-59.72,11-1.8,22.11-3.06,33.25-3.87C1936.63,256.19,1938.8,256.89,1938.38,259.37Z" transform="translate(-1232.93 -19.08)"/><path d="M2000.57,158.94c-1.17,8.88-2.32,17.51-3.44,26.15q-8.85,68.64-17.7,137.28-9.24,71.85-18.46,143.72-8.78,68.15-17.6,136.28c-2.45,19-5,38-7.26,57-.38,3.1-1.53,4.72-4.49,5.69-16.16,5.27-32.26,10.71-48.39,16.05-5.2,1.71-6.27.71-5.23-4.91q8.68-47.18,17.43-94.34,21.78-118.16,43.55-236.3,21.74-117.9,43.49-235.79,7.83-42.49,15.65-85a10.54,10.54,0,0,1,.4-2c.54-1.44.09-3.72,2.47-3.75,2.77,0,2.31,2.5,2.6,4.09q4.77,25.53,9.36,51.11,35.19,193.77,70.38,387.54,12.59,69.33,25.3,138.66c.79,4.32,0,6.68-4.46,8.23-11.49,3.95-22.8,8.42-34.2,12.64-5,1.84-5.85,1.35-6.55-3.8q-12.14-89.91-24.22-179.84-12.87-95.58-25.76-191.18-5.7-42.33-11.35-84.68C2002,161,2002.32,159.84,2000.57,158.94Z" transform="translate(-1232.93 -19.08)"/><path d="M2073.84,256.42a498.22,498.22,0,0,1,79.79,13q145.54,35.05,262.79,128.15a699.58,699.58,0,0,1,82.88,78c.45.49.86,1,1.29,1.52,3.66,4.44,3.5,5.38-1.75,7.34s-10.34,3.73-15.57,5.4c-10.95,3.5-22,6.82-32.89,10.35-2.7.87-4.53.82-6.38-1.81-39.82-56.66-91.61-100-151.17-134.34-64.46-37.19-134-59.35-207.66-69.2-8-1.06-7.94-1-9.77-9-1.86-8.12-3.65-16.26-5.66-24.34C2068.8,257.72,2069.92,256.06,2073.84,256.42Z" transform="translate(-1232.93 -19.08)"/><path d="M2080.58,1712.13c-.74,2.64-1.4,5-2.09,7.45L2004.21,1979c-.32,1.12-.67,2.23-1,3.35a2.23,2.23,0,0,1-4.33,0c-.36-1.11-.68-2.23-1-3.35l-75-262.2c-.14-.48-.31-1-.42-1.44-.39-1.73-1.69-3.79.14-5.08s3.44.29,5,1.31l42,28c8.87,5.9,17.93,11.56,26.54,17.82,3.81,2.78,6.29,2.35,10-.14,22.3-15.14,44.79-30,67.22-44.94a16.7,16.7,0,0,1,3.85-2.25C2079.06,1709.41,2080.45,1710.11,2080.58,1712.13Z" transform="translate(-1232.93 -19.08)"/><path d="M2181,1546.55c-.36-5.71.6-6.45,5.63-4.17,28.19,12.84,56.33,25.78,84.55,38.57,3.41,1.54,4.11,3.44,3.29,7q-27.85,122.2-55.53,244.46c-.34,1.51-.24,3.91-2.41,3.81s-2.41-2.32-2.63-4.21q-5.39-46.9-10.83-93.79-7.31-63.27-14.58-126.54Z" transform="translate(-1232.93 -19.08)"/><path d="M1818.73,1545.46q-4.5,41.51-9,83-10.37,95.91-20.74,191.81c-.22,2-.45,4-.75,6s0,4.63-2.45,4.8c-2.24.16-2.22-2.59-2.63-4.23-2-8.08-3.9-16.19-5.77-24.3q-24.83-107.28-49.7-214.55c-.75-3.22-.69-5.16,2.7-6.74,27.64-12.87,55.2-25.92,82.81-38.84C1817.7,1540.27,1818.93,1541.08,1818.73,1545.46Z" transform="translate(-1232.93 -19.08)"/></svg>